<svg xmlns="http://www.w3.org/2000/svg" width="1187.756" height="1027.458" viewBox="0 0 1187.756 1027.458">
  <g id="mission" transform="translate(0 -22.723)" opacity="0.184">
    <g id="Group_1" data-name="Group 1" transform="translate(0 22.723)">
      <path id="Path_1" data-name="Path 1" d="M1182.24,996.33,932.584,611.135a38.287,38.287,0,0,0-63.4,0l-32.413,50.01a16.067,16.067,0,0,0,5.709,22.758c8.2,4.785,18.93,2.361,23.975-5.42l32.413-50.013a2.44,2.44,0,0,1,4.039,0l249.656,385.195a1.977,1.977,0,0,1,.051,2.275,2.206,2.206,0,0,1-2.069,1.152H1012.279l-386.7-596.624a36.373,36.373,0,0,0-13.822-12.5.149.149,0,0,1,.019.009V295.7a169.178,169.178,0,0,0,42.446,5.327c39.743,0,76.961-13.114,113.37-25.944,50.452-17.779,98.106-34.571,149.648-14.949a22.5,22.5,0,0,0,20.09-2.041,20.185,20.185,0,0,0,9.486-16.959V54.261a20.454,20.454,0,0,0-13.107-18.853C868.282,8.922,810.927,29.129,755.462,48.672,703.5,66.981,654.426,84.275,600.989,61.6A18.236,18.236,0,0,0,584.4,62.826a16.349,16.349,0,0,0-7.945,13.881v.614a16.143,16.143,0,0,0-.471,3.823V407.973a36.408,36.408,0,0,0-13.805,12.5L378.586,703.726l-60.01-92.588a38.287,38.287,0,0,0-63.4,0L5.514,996.33a33.829,33.829,0,0,0-.791,35.753,37.622,37.622,0,0,0,32.492,18.1H1150.539a37.622,37.622,0,0,0,32.492-18.1A33.824,33.824,0,0,0,1182.24,996.33ZM611.3,100.193c56.411,14.689,107.079-3.165,156.287-20.5,48.682-17.155,94.8-33.4,144.373-16.829v160.73c-56.581-14.729-107.3,3.145-156.5,20.481-48.6,17.125-94.679,33.362-144.159,16.838ZM216.4,1017.1l59.785-92.241a16.067,16.067,0,0,0-5.709-22.758c-8.2-4.785-18.93-2.361-23.973,5.42L175.48,1017.1H37.217a2.206,2.206,0,0,1-2.069-1.152,1.973,1.973,0,0,1,.051-2.275L284.858,628.476a2.438,2.438,0,0,1,4.037,0l69.233,106.817L289,841.949a16.067,16.067,0,0,0,5.709,22.758c8.2,4.788,18.932,2.361,23.973-5.42L591.86,437.8a2.438,2.438,0,0,1,4.037,0L971.358,1017.1Z" transform="translate(0 -22.723)"/>
    </g>
  </g>
</svg>
